# xmcd CD database file
#
# Track frame offsets:
#	150
#	20464
#	42702
#	56855
#	75400
#	93131
#	105427
#	138714
#	149669
#	160757
#	174259
#	187823
#	201504
#	214068
#	224447
#	237855
#	248314
#	261852
#	274806
#	287731
#	301713
#
# Disc length: 4381 seconds
#
# Revision: 0
# Processed by: cddbd v1.5.2PL0 Copyright (c) Steve Scherf et al.
# Submitted via: CDex 1.51
#
DISCID=2d111b15
DTITLE=Big Al Sears - The Rocking and Honking Tenor  {1945-1952}
DYEAR=2003
DGENRE=Jazz
TTITLE0=It Don't Mean A Thing   [Duke Ellington and His Orchestra, 1945]
TTITLE1=Let The Zoomers Droll   [Duke Ellington and His Orchestra, 1945]
TTITLE2=Otto Make That Riff Staccato   [Duke Ellington and His Orchestra, 1945]
TTITLE3=Blues On The Double   [Duke Ellington and His Orchestra, 1945]
TTITLE4=In A Jam   [Duke Ellington and His Orchestra, 1945]
TTITLE5=The Beautiful Indians 1   [Duke Ellington and His Orchestra, 1946]
TTITLE6=One O'Clock Jump   [Duke Ellington and His Orchestra, 1947]
TTITLE7=Searsy   [Al Sears and The All-Stars Rhythm Section, 1945]
TTITLE8=Long Long Ago   [Al Sears and The All-Stars Rhythm Section, 1945]
TTITLE9=Baltimor Bounce   [Al Sears and His Orchestra, 1951]
TTITLE10=Now Ride The D Train   [Al Sears and His Orchestra, 1951]
TTITLE11=Groove Station  [Al Sears and His Orchestra, 1951]
TTITLE12=Marshall Plan   [Al Sears and His Orchestra, 1951]
TTITLE13=Nell Don't Wear No Button Up Shoes   [Al Sears and His Orchestra, 1951]
TTITLE14=Huffin' and Puffin'   [Al Sears and His Orchestra, 1952]
TTITLE15=Sear-Lously   [Al Sears and His Orchestra, 1952]
TTITLE16=Dutch Treat   [Rex Stewart's Big Eight, 1945]
TTITLE17=Something To Pat Your Foot To   [Johnny Hodges and His Orchestra, 1951]
TTITLE18=Castle Rock   [Johnny Hodges and His Orchestra, 1951]
TTITLE19=Sideways   [Johnny Hodges and His Orchestra, 1952]
TTITLE20=Sweet Georgia Brown   [Johnny Hodges and His Orchestra, 1952]
EXTD=YEAR: 2003
EXTT0=
EXTT1=
EXTT2=
EXTT3=
EXTT4=
EXTT5=
EXTT6=
EXTT7=
EXTT8=
EXTT9=
EXTT10=
EXTT11=
EXTT12=
EXTT13=
EXTT14=
EXTT15=
EXTT16=
EXTT17=
EXTT18=
EXTT19=
EXTT20=
PLAYORDER=
